<svg width="265" height="24" viewBox="0 0 265 24" fill="none" xmlns="http://www.w3.org/2000/svg">
<path d="M18.4 3.2V21.8H20.2V23H12.1V21.8H13.9V14.81H6.4V21.8H8.2V23H0.1V21.8H1.9V3.2H0.1V2H8.2V3.2H6.4V13.46H13.9V3.2H12.1V2H20.2V3.2H18.4ZM26.4271 21.17C24.9671 19.63 24.2371 17.74 24.2371 15.5C24.2371 13.26 24.9671 11.38 26.4271 9.86C27.9071 8.32 29.8271 7.55 32.1871 7.55C34.5471 7.55 36.4571 8.32 37.9171 9.86C39.3971 11.38 40.1371 13.26 40.1371 15.5C40.1371 17.74 39.3971 19.63 37.9171 21.17C36.4571 22.69 34.5471 23.45 32.1871 23.45C29.8271 23.45 27.9071 22.69 26.4271 21.17ZM29.7271 10.7C29.1671 11.94 28.8871 13.54 28.8871 15.5C28.8871 17.46 29.1671 19.07 29.7271 20.33C30.2871 21.57 31.1171 22.19 32.2171 22.19C33.3171 22.19 34.1471 21.57 34.7071 20.33C35.2671 19.07 35.5471 17.46 35.5471 15.5C35.5471 13.54 35.2671 11.94 34.7071 10.7C34.1471 9.44 33.3171 8.81 32.2171 8.81C31.1171 8.81 30.2871 9.44 29.7271 10.7ZM43.2618 9.65V8.42H45.7218V4.1H50.2218V8.42H53.6118V9.65H50.2218V19.67C50.2218 20.21 50.3518 20.64 50.6118 20.96C50.8718 21.26 51.2718 21.41 51.8118 21.41C52.3518 21.41 52.9718 21.12 53.6718 20.54L54.2118 21.26C52.6118 22.72 51.0118 23.45 49.4118 23.45C46.9518 23.45 45.7218 21.98 45.7218 19.04V9.65H43.2618ZM63.0266 16.07C64.3266 15.95 65.3266 15.46 66.0266 14.6C66.7466 13.72 67.1066 12.84 67.1066 11.96C67.1066 11.06 66.9066 10.37 66.5066 9.89C66.1266 9.41 65.5366 9.17 64.7366 9.17C63.9566 9.17 63.2066 9.73 62.4866 10.85C61.7666 11.97 61.4066 13.47 61.4066 15.35C61.4066 17.23 61.7466 18.74 62.4266 19.88C63.1066 21.02 64.0766 21.59 65.3366 21.59C67.2566 21.59 68.8866 20.84 70.2266 19.34L71.0666 19.88C70.3866 20.96 69.4866 21.83 68.3666 22.49C67.2466 23.13 65.9866 23.45 64.5866 23.45C62.2066 23.45 60.3066 22.67 58.8866 21.11C57.4666 19.53 56.7566 17.63 56.7566 15.41C56.7566 13.19 57.5066 11.33 59.0066 9.83C60.5266 8.31 62.6266 7.55 65.3066 7.55C67.0666 7.55 68.4466 7.96 69.4466 8.78C70.4466 9.6 70.9466 10.64 70.9466 11.9C70.9466 13.16 70.3866 14.33 69.2666 15.41C68.1666 16.47 66.7066 17 64.8866 17C64.2666 17 63.6666 16.93 63.0866 16.79L63.0266 16.07ZM72.707 2.03C73.287 1.43 74.017 0.949999 74.897 0.589999C75.797 0.229999 76.677 0.0499986 77.537 0.0499986C78.417 0.0499986 79.137 0.229999 79.697 0.589999C80.257 0.929999 80.537 1.36 80.537 1.88V19.67C80.537 20.21 80.667 20.64 80.927 20.96C81.187 21.26 81.587 21.41 82.127 21.41C82.667 21.41 83.287 21.12 83.987 20.54L84.527 21.26C82.927 22.72 81.327 23.45 79.727 23.45C77.267 23.45 76.037 21.98 76.037 19.04V1.49C74.937 1.77 74.097 2.26 73.517 2.96L72.707 2.03ZM86.0277 3.2V2H92.6277C97.4877 2 100.568 3.12 101.868 5.36C102.368 6.24 102.618 7.31 102.618 8.57C102.618 11.49 100.958 13.45 97.6377 14.45C98.8977 14.87 99.7377 15.74 100.158 17.06L101.058 20.06C101.198 20.56 101.378 20.91 101.598 21.11C101.818 21.31 102.188 21.41 102.708 21.41C103.228 21.41 103.838 21.12 104.538 20.54L105.078 21.26C103.478 22.72 101.778 23.45 99.9777 23.45C99.0577 23.45 98.3177 23.29 97.7577 22.97C97.1977 22.65 96.7977 22.09 96.5577 21.29L95.1477 16.67C94.9677 16.09 94.6877 15.69 94.3077 15.47C93.9277 15.25 93.2677 15.13 92.3277 15.11V21.8H94.7277V23H86.0277V21.8H87.8277V3.2H86.0277ZM92.6277 3.2H92.3277V13.91H92.6277C94.2077 13.91 95.5177 13.45 96.5577 12.53C97.5977 11.59 98.1177 10.27 98.1177 8.57C98.1177 6.87 97.5977 5.55 96.5577 4.61C95.5177 3.67 94.2077 3.2 92.6277 3.2ZM113.007 16.07C114.307 15.95 115.307 15.46 116.007 14.6C116.727 13.72 117.087 12.84 117.087 11.96C117.087 11.06 116.887 10.37 116.487 9.89C116.107 9.41 115.517 9.17 114.717 9.17C113.937 9.17 113.187 9.73 112.467 10.85C111.747 11.97 111.387 13.47 111.387 15.35C111.387 17.23 111.727 18.74 112.407 19.88C113.087 21.02 114.057 21.59 115.317 21.59C117.237 21.59 118.867 20.84 120.207 19.34L121.047 19.88C120.367 20.96 119.467 21.83 118.347 22.49C117.227 23.13 115.967 23.45 114.567 23.45C112.187 23.45 110.287 22.67 108.867 21.11C107.447 19.53 106.737 17.63 106.737 15.41C106.737 13.19 107.487 11.33 108.987 9.83C110.507 8.31 112.607 7.55 115.287 7.55C117.047 7.55 118.427 7.96 119.427 8.78C120.427 9.6 120.927 10.64 120.927 11.9C120.927 13.16 120.367 14.33 119.247 15.41C118.147 16.47 116.687 17 114.867 17C114.247 17 113.647 16.93 113.067 16.79L113.007 16.07ZM134.388 11.21C133.948 10.75 133.728 10.2 133.728 9.56C133.728 8.92 133.948 8.38 134.388 7.94C134.848 7.48 135.418 7.25 136.098 7.25C136.778 7.25 137.358 7.51 137.837 8.03C138.338 8.53 138.688 9.2 138.888 10.04C139.268 11.5 139.458 12.93 139.458 14.33C139.458 15.73 139.288 16.95 138.948 17.99C138.608 19.03 138.168 19.88 137.628 20.54C137.088 21.18 136.488 21.73 135.828 22.19C134.588 23.03 133.358 23.45 132.138 23.45C130.438 23.45 129.088 23.03 128.088 22.19C127.108 21.33 126.618 20.08 126.618 18.44V8.99C125.518 9.27 124.678 9.76 124.098 10.46L123.288 9.53C123.868 8.93 124.598 8.45 125.478 8.09C126.378 7.73 127.258 7.55 128.118 7.55C128.998 7.55 129.718 7.73 130.278 8.09C130.838 8.43 131.118 8.86 131.118 9.38V19.37C131.118 20.01 131.318 20.5 131.718 20.84C132.118 21.16 132.618 21.32 133.218 21.32C134.478 21.32 135.568 20.67 136.488 19.37C137.408 18.05 137.868 16.44 137.868 14.54C137.868 13.58 137.678 12.57 137.298 11.51C136.938 11.75 136.478 11.87 135.918 11.87C135.358 11.87 134.848 11.65 134.388 11.21ZM145.882 4.61C145.422 4.13 145.192 3.56 145.192 2.9C145.192 2.24 145.422 1.68 145.882 1.22C146.362 0.739999 146.932 0.499998 147.592 0.499998C148.252 0.499998 148.812 0.739999 149.272 1.22C149.752 1.68 149.992 2.24 149.992 2.9C149.992 3.56 149.752 4.13 149.272 4.61C148.812 5.07 148.252 5.3 147.592 5.3C146.932 5.3 146.362 5.07 145.882 4.61ZM147.022 7.55C148.902 7.55 149.842 8.36 149.842 9.98V19.67C149.842 20.21 149.972 20.64 150.232 20.96C150.492 21.26 150.892 21.41 151.432 21.41C151.972 21.41 152.592 21.12 153.292 20.54L153.832 21.26C152.232 22.72 150.632 23.45 149.032 23.45C146.572 23.45 145.342 21.98 145.342 19.04V8.99C144.242 9.27 143.402 9.76 142.822 10.46L142.012 9.53C142.592 8.93 143.322 8.45 144.202 8.09C145.102 7.73 146.042 7.55 147.022 7.55ZM161.464 16.07C162.764 15.95 163.764 15.46 164.464 14.6C165.184 13.72 165.544 12.84 165.544 11.96C165.544 11.06 165.344 10.37 164.944 9.89C164.564 9.41 163.974 9.17 163.174 9.17C162.394 9.17 161.644 9.73 160.924 10.85C160.204 11.97 159.844 13.47 159.844 15.35C159.844 17.23 160.184 18.74 160.864 19.88C161.544 21.02 162.514 21.59 163.774 21.59C165.694 21.59 167.324 20.84 168.664 19.34L169.504 19.88C168.824 20.96 167.924 21.83 166.804 22.49C165.684 23.13 164.424 23.45 163.024 23.45C160.644 23.45 158.744 22.67 157.324 21.11C155.904 19.53 155.194 17.63 155.194 15.41C155.194 13.19 155.944 11.33 157.444 9.83C158.964 8.31 161.064 7.55 163.744 7.55C165.504 7.55 166.884 7.96 167.884 8.78C168.884 9.6 169.384 10.64 169.384 11.9C169.384 13.16 168.824 14.33 167.704 15.41C166.604 16.47 165.144 17 163.324 17C162.704 17 162.104 16.93 161.524 16.79L161.464 16.07ZM189.325 9.38V19.37C189.325 20.01 189.525 20.5 189.925 20.84C190.325 21.16 190.825 21.32 191.425 21.32C192.685 21.32 193.775 20.67 194.695 19.37C195.615 18.05 196.075 16.44 196.075 14.54C196.075 13.58 195.885 12.57 195.505 11.51C195.145 11.75 194.685 11.87 194.125 11.87C193.565 11.87 193.055 11.65 192.595 11.21C192.155 10.75 191.935 10.2 191.935 9.56C191.935 8.92 192.155 8.38 192.595 7.94C193.055 7.48 193.625 7.25 194.305 7.25C194.985 7.25 195.565 7.51 196.045 8.03C196.545 8.53 196.905 9.2 197.125 10.04C197.485 11.5 197.665 12.93 197.665 14.33C197.665 15.73 197.495 16.95 197.155 17.99C196.815 19.03 196.375 19.88 195.835 20.54C195.295 21.18 194.685 21.73 194.005 22.19C192.785 23.03 191.565 23.45 190.345 23.45C187.965 23.45 186.325 22.67 185.425 21.11C184.765 21.87 183.985 22.45 183.085 22.85C182.185 23.25 181.355 23.45 180.595 23.45C178.895 23.45 177.545 23.03 176.545 22.19C175.565 21.33 175.075 20.08 175.075 18.44V8.99C173.975 9.27 173.135 9.76 172.555 10.46L171.745 9.53C172.325 8.93 173.055 8.45 173.935 8.09C174.835 7.73 175.715 7.55 176.575 7.55C177.455 7.55 178.175 7.73 178.735 8.09C179.295 8.43 179.575 8.86 179.575 9.38V19.37C179.575 20.01 179.775 20.5 180.175 20.84C180.575 21.16 181.075 21.32 181.675 21.32C183.035 21.32 184.095 20.65 184.855 19.31C184.835 19.13 184.825 18.84 184.825 18.44V8.99C183.725 9.27 182.885 9.76 182.305 10.46L181.495 9.53C182.075 8.93 182.805 8.45 183.685 8.09C184.585 7.73 185.465 7.55 186.325 7.55C187.205 7.55 187.925 7.73 188.485 8.09C189.045 8.43 189.325 8.86 189.325 9.38ZM219.875 3.2V21.8H221.675V23H213.575V21.8H215.375V14.81H207.875V21.8H209.675V23H201.575V21.8H203.375V3.2H201.575V2H209.675V3.2H207.875V13.46H215.375V3.2H213.575V2H221.675V3.2H219.875ZM231.982 9.38V19.67C231.982 20.29 232.172 20.77 232.552 21.11C232.932 21.45 233.462 21.62 234.142 21.62C234.822 21.62 235.482 21.34 236.122 20.78C236.762 20.22 237.082 19.49 237.082 18.59V8H241.582V19.67C241.582 20.21 241.712 20.64 241.972 20.96C242.232 21.26 242.632 21.41 243.172 21.41C243.712 21.41 244.332 21.12 245.032 20.54L245.572 21.26C243.972 22.72 242.342 23.45 240.682 23.45C239.022 23.45 237.922 22.71 237.382 21.23C236.602 22.05 235.792 22.63 234.952 22.97C234.132 23.29 233.072 23.45 231.772 23.45C230.492 23.45 229.452 23.06 228.652 22.28C227.872 21.48 227.482 20.4 227.482 19.04V8.99C226.382 9.27 225.542 9.76 224.962 10.46L224.152 9.53C224.732 8.93 225.462 8.45 226.342 8.09C227.242 7.73 228.122 7.55 228.982 7.55C229.862 7.55 230.582 7.73 231.142 8.09C231.702 8.43 231.982 8.86 231.982 9.38ZM252.803 1.88V9.92C253.863 8.34 255.333 7.55 257.213 7.55C259.513 7.55 261.263 8.3 262.463 9.8C263.663 11.28 264.263 13.18 264.263 15.5C264.263 17.8 263.613 19.7 262.313 21.2C261.033 22.7 259.233 23.45 256.913 23.45C255.133 23.45 253.763 22.74 252.803 21.32V23H248.303V1.49C247.203 1.77 246.363 2.26 245.783 2.96L244.973 2.03C245.553 1.43 246.283 0.949999 247.163 0.589999C248.063 0.229999 248.943 0.0499986 249.803 0.0499986C250.683 0.0499986 251.403 0.229999 251.963 0.589999C252.523 0.929999 252.803 1.36 252.803 1.88ZM258.773 20.06C259.333 18.94 259.613 17.42 259.613 15.5C259.613 13.58 259.333 12.06 258.773 10.94C258.213 9.82 257.353 9.26 256.193 9.26C255.053 9.26 254.173 9.83 253.553 10.97C252.953 12.09 252.653 13.6 252.653 15.5C252.653 17.4 252.953 18.92 253.553 20.06C254.173 21.18 255.053 21.74 256.193 21.74C257.353 21.74 258.213 21.18 258.773 20.06Z" fill="#800020"/>
</svg>
